<?xml version="1.0" encoding="utf-8"?>
<!-- Generator: Adobe Illustrator 22.0.0, SVG Export Plug-In . SVG Version: 6.00 Build 0)  -->
<svg version="1.1" id="Layer_1" xmlns="http://www.w3.org/2000/svg" xmlns:xlink="http://www.w3.org/1999/xlink" x="0px" y="0px"
	 viewBox="0 0 1080 1080" style="enable-background:new 0 0 1080 1080;" xml:space="preserve">
<style type="text/css">
	.st0{fill:#FFFFFF;}
</style>
<g id="ico-txt_1_">
	<g id="texto_2_">
		<g>
			<path class="st0" d="M243.3,618.6h15.2v36h0.6c1.9-2.9,4.3-5.3,7.3-7c3-1.8,6.4-2.6,10.3-2.6c13,0,19.5,7.9,19.5,23.6v52.9H281
				v-49.7c0-4.7-0.9-8.1-2.6-10.1s-4.2-3-7.5-3c-3.5,0-6.5,1.6-8.8,4.7c-2.4,3.1-3.6,7.2-3.6,12.1v46h-15.2V618.6z"/>
			<path class="st0" d="M318.8,713.7c-4.8-6.4-7.2-16.2-7.2-29.6s2.4-23.2,7.2-29.6c4.8-6.4,12-9.5,21.6-9.5
				c9.7,0,16.9,3.2,21.7,9.6c4.8,6.4,7.2,16.2,7.2,29.5s-2.4,23.1-7.2,29.5c-4.8,6.4-12,9.6-21.7,9.6
				C330.8,723.2,323.6,720.1,318.8,713.7z M350.3,704.5c2.1-3.9,3.1-9.8,3.1-17.6v-5.4c0-7.9-1-13.8-3.1-17.6
				c-2.1-3.9-5.4-5.8-9.8-5.8c-4.5,0-7.7,1.9-9.8,5.8c-2.1,3.9-3.1,9.8-3.1,17.6v5.4c0,7.9,1,13.8,3.1,17.6c2.1,3.9,5.4,5.8,9.8,5.8
				C344.8,710.3,348.1,708.3,350.3,704.5z"/>
			<path class="st0" d="M384.3,618.6h15.2v102.9h-15.2V618.6z"/>
			<path class="st0" d="M422,713.7c-4.8-6.4-7.2-16.2-7.2-29.6s2.4-23.2,7.2-29.6c4.8-6.4,12-9.5,21.6-9.5c9.7,0,16.9,3.2,21.7,9.6
				c4.8,6.4,7.2,16.2,7.2,29.5s-2.4,23.1-7.2,29.5c-4.8,6.4-12,9.6-21.7,9.6C434,723.2,426.8,720.1,422,713.7z M453.4,704.5
				c2.1-3.9,3.1-9.8,3.1-17.6v-5.4c0-7.9-1-13.8-3.1-17.6c-2.1-3.9-5.4-5.8-9.8-5.8c-4.5,0-7.7,1.9-9.8,5.8
				c-2.1,3.9-3.1,9.8-3.1,17.6v5.4c0,7.9,1,13.8,3.1,17.6c2.1,3.9,5.4,5.8,9.8,5.8C448.1,710.3,451.3,708.3,453.4,704.5z"/>
			<path class="st0" d="M473.8,746.9c-2.3-0.3-4.2-0.7-5.8-1.2l1.8-12.7h6.3c4.3,0,6.7-2.3,7.3-6.8l8.5-65.2h-7.4l2-14.4h7.4
				l1.3-9.1c0.9-5.7,2.9-10.5,6.1-14.3s8-5.8,14.2-5.8c1.9,0,4,0.2,6.3,0.5s4.2,0.7,5.6,1.2l-1.8,12.7h-6.8c-1.9,0-3.4,0.5-4.6,1.6
				c-1.2,1-1.9,2.6-2.2,4.6l-1.1,8.7h12.8l-2,14.4h-12.8l-8.8,66.3c-0.8,5.7-2.7,10.5-5.9,14.3c-3.2,3.8-7.8,5.8-13.9,5.8
				C478.3,747.4,476.1,747.3,473.8,746.9z"/>
			<path class="st0" d="M535.1,646.7H549v11.4c1.9-3.9,4.1-7,6.5-9.5c2.4-2.4,5.4-3.6,8.9-3.6c1.8,0,3.3,0.2,4.6,0.5
				c1.2,0.3,2,0.5,2.3,0.6l-2.1,16.5h-5.4c-4.2,0-7.7,1.3-10.6,4c-2.9,2.7-4.8,7.1-5.6,13.2l-5.8,41.7h-16.8L535.1,646.7z"/>
			<path class="st0" d="M581,718.5c-3.9-3.1-5.9-8.6-5.9-16.4c0-9.6,3.2-16.3,9.7-20.1c6.5-3.8,15.7-5.7,27.7-5.7v-8.5
				c0-3.2-0.7-5.7-2-7.5s-3.7-2.7-7.3-2.7c-3.4,0-5.9,0.9-7.5,2.7c-1.6,1.8-2.3,4-2.3,6.5v2h-14.9c-0.1-0.6-0.1-1.6-0.1-3.1
				c0-6.5,2.3-11.5,6.8-15.2s10.6-5.5,18.1-5.5c8.2,0,14.3,1.9,18.4,5.6c4.1,3.7,6.1,9.1,6.1,16v38.7c0,1.7,0.4,3,1.1,3.8
				c0.8,0.8,1.7,1.2,2.8,1.2h3.8V721c-2.8,1.4-5.9,2.1-9.2,2.1c-3.2,0-6-0.9-8.2-2.6c-2.2-1.8-3.8-4.1-4.6-7h-0.7
				c-2.2,3.2-4.7,5.7-7.7,7.3c-2.9,1.7-6.6,2.5-11,2.5C589.3,723.2,584.8,721.7,581,718.5z M609,705.6c2.3-3.1,3.4-7.3,3.4-12.4
				v-5.1c-6.7,0-12,0.9-15.9,2.8s-5.8,5.2-5.8,10c0,6.3,3,9.4,9,9.4C603.6,710.3,606.8,708.7,609,705.6z"/>
			<path class="st0" d="M651,713.8c-4.4-6.3-6.6-16.2-6.6-29.7c0-13.4,2.2-23.2,6.7-29.6s11.2-9.5,20.3-9.5c16.7,0,25,9.9,25,29.7
				h-15.7c0-5.8-0.7-10-2.2-12.7s-3.9-4.1-7.2-4.1c-3.9,0-6.7,1.9-8.5,5.8s-2.6,9.8-2.6,17.6v5.4c0,7.9,0.9,13.8,2.7,17.6
				c1.8,3.9,4.7,5.8,8.8,5.8c3.3,0,5.7-1.4,7.3-4.2c1.5-2.8,2.3-7,2.3-12.6h15.1c0,9.6-2.1,16.9-6.3,22.1
				c-4.2,5.1-10.3,7.7-18.3,7.7C662.3,723.2,655.3,720.1,651,713.8z"/>
			<path class="st0" d="M717.3,717.7c-2.5-3.6-3.8-8.2-3.8-13.7v-44.4h-7.1v-12.9h7.1l2.6-20.9h12.7v20.9h10.5v12.9h-10.5v44.3
				c0,4.3,2.1,6.4,6.3,6.4h4.3v11.1c-1.2,0.5-2.8,0.9-4.6,1.2c-1.8,0.3-3.5,0.5-5,0.5C724,723.1,719.8,721.3,717.3,717.7z"/>
			<path class="st0" d="M755.1,718.5c-3.9-3.1-5.9-8.6-5.9-16.4c0-9.6,3.2-16.3,9.7-20.1c6.5-3.8,15.7-5.7,27.7-5.7v-8.5
				c0-3.2-0.7-5.7-2-7.5s-3.7-2.7-7.3-2.7c-3.4,0-5.9,0.9-7.5,2.7c-1.6,1.8-2.3,4-2.3,6.5v2h-14.9c-0.1-0.6-0.1-1.6-0.1-3.1
				c0-6.5,2.3-11.5,6.8-15.2s10.6-5.5,18.1-5.5c8.2,0,14.3,1.9,18.4,5.6c4.1,3.7,6.1,9.1,6.1,16v38.7c0,1.7,0.4,3,1.1,3.8
				c0.8,0.8,1.7,1.2,2.8,1.2h3.8V721c-2.8,1.4-5.9,2.1-9.2,2.1c-3.2,0-6-0.9-8.2-2.6c-2.2-1.8-3.8-4.1-4.6-7h-0.7
				c-2.2,3.2-4.7,5.7-7.7,7.3c-2.9,1.7-6.6,2.5-11,2.5C763.5,723.2,759,721.7,755.1,718.5z M783.3,705.6c2.3-3.1,3.4-7.3,3.4-12.4
				v-5.1c-6.7,0-12,0.9-15.9,2.8s-5.8,5.2-5.8,10c0,6.3,3,9.4,9,9.4C777.8,710.3,781,708.7,783.3,705.6z"/>
			<path class="st0" d="M821.5,618.6h15.2v102.9h-15.2V618.6z"/>
		</g>
		<g>
			<path class="st0" d="M391.3,791.6v9.1h-23.2v8.2H389v9.1l-20.9,0.1v8.3h23.8v9.1h-35.2v-43.9L391.3,791.6L391.3,791.6z"/>
			<path class="st0" d="M429.3,800.5c-2.8,0-4.6,1-4.6,3c0,7.3,23.1,3.1,23.1,18.9c0,9-7.9,13.5-17.7,13.5c-7.3,0-15-2.7-20.2-7
				l4.4-8.9c4.5,3.9,11.3,6.6,15.9,6.6c3.4,0,5.5-1.3,5.5-3.6c0-7.4-23.1-2.9-23.1-18.5c0-8.2,6.9-13.4,17.5-13.4
				c6.4,0,13,2,17.5,4.9l-4.3,9.1C438.8,802.5,432.9,800.5,429.3,800.5z"/>
			<path class="st0" d="M501.8,791.6v9.5h-13.1v34.4h-11.5v-34.4h-13v-9.5H501.8z"/>
			<path class="st0" d="M540.3,826.2c5.1,0,8.6-3.4,8.6-9.1v-25.5h11.5v25.5c0,11.6-7.8,18.9-20.1,18.9c-12.4,0-20.3-7.3-20.3-18.9
				v-25.5h11.5v25.5C531.3,822.7,535,826.2,540.3,826.2z"/>
			<path class="st0" d="M624.5,813.5c0,13.1-9.6,22-23.8,22h-18.5v-43.9h18.9C615.1,791.6,624.5,800.5,624.5,813.5z M612.8,813.7
				c0-7.6-4.9-12.7-11.9-12.7h-7.2v25.3h7.8C608.1,826.2,612.8,821.2,612.8,813.7z"/>
			<path class="st0" d="M656,791.6v43.9h-11.5v-43.9H656z"/>
			<path class="st0" d="M723.5,813.5c0,12.8-10.1,22.5-23.7,22.5c-13.6,0-23.7-9.6-23.7-22.5c0-12.8,10.1-22.2,23.7-22.2
				C713.3,791.3,723.5,800.8,723.5,813.5z M687.8,813.6c0,7.1,5.6,12.6,12.1,12.6c6.6,0,11.8-5.5,11.8-12.6s-5.3-12.5-11.8-12.5
				S687.8,806.5,687.8,813.6z"/>
		</g>
	</g>
	<g id="icono_2_">
		<path class="st0" d="M519.5,319.8c-42.2,11.3-67.3,54.7-56,97c0.1,0.4,0.2,0.8,0.4,1.3c0.1,0.5,0.6,0.8,1,0.8
			c7.1,0.2,15,0.1,23.3-0.5c0.8-0.1,1.2-0.8,1-1.5c-0.8-2-1.5-4.1-2.1-6.3c-7.8-29.2,9.5-59.3,38.8-67.2
			c29.2-7.8,59.3,9.5,67.2,38.8c0.9,3.4,1.5,6.8,1.7,10.2c0.1,0.8,0.8,1.3,1.6,1c7.8-3.2,14.9-6.6,21.1-10c0.4-0.2,0.6-0.7,0.6-1.2
			c-0.4-2.1-0.8-4.2-1.4-6.3C605.1,333.5,561.8,308.4,519.5,319.8z"/>
		<path class="st0" d="M555.6,367.8c-10.9-1.4-20,7.8-18.6,18.6c0.9,7.4,6.9,13.4,14.3,14.3c10.9,1.4,20-7.8,18.6-18.6
			C569,374.7,563,368.7,555.6,367.8z"/>
		<path class="st0" d="M718,348.3c-3-10.4-17.1-17.5-37.5-21.5c-3.5-0.7-6.5-2.9-8.2-6c-33.5-58.7-103.4-89.9-171.7-71.6
			c-68.4,18.3-113.3,80.3-112.9,148c0,3.6-1.5,7-4.1,9.3c-15.6,13.6-24.2,26.8-21.6,37.3c7.7,30.9,111.9,38.6,195.2,16.2
			C640.3,437.6,726.8,378.8,718,348.3z M548.3,426.9c-61.7,16.5-115.4,16.1-120-1l0,0h-0.1c0,0,0,0,0-0.1c-0.3-1-0.5-1.9-0.7-2.9
			c0-0.2-0.1-0.3-0.1-0.5c-0.2-0.8-0.4-1.7-0.6-2.5c0-0.2-0.1-0.4-0.1-0.6c-0.2-0.8-0.3-1.6-0.5-2.4c0-0.3-0.1-0.5-0.1-0.8
			c-0.1-0.7-0.3-1.5-0.4-2.2c0-0.3-0.1-0.5-0.1-0.8c-0.1-0.7-0.2-1.5-0.3-2.2c0-0.3-0.1-0.6-0.1-0.8c-0.1-0.7-0.2-1.4-0.2-2.2
			c0-0.3-0.1-0.6-0.1-0.8c-0.1-0.7-0.1-1.5-0.2-2.2c0-0.3,0-0.5-0.1-0.8c-0.1-0.7-0.1-1.5-0.1-2.2c0-0.3,0-0.5,0-0.8
			c0-0.7-0.1-1.5-0.1-2.2c0-0.2,0-0.5,0-0.7c0-0.8,0-1.5,0-2.3c0-0.2,0-0.4,0-0.7c0-0.8,0-1.6,0-2.4c0-0.2,0-0.4,0-0.5
			c0-0.9,0.1-1.7,0.1-2.6c0-0.1,0-0.2,0-0.4c0.1-0.9,0.1-1.9,0.2-2.8v-0.1c0.3-3,0.6-5.9,1.1-8.9l0,0c7.2-43.5,39-80.9,84.3-93.1
			c45.3-12.1,91.5,4.4,119.5,38.4l0,0c1.9,2.3,3.7,4.7,5.4,7.1c0,0.1,0.1,0.1,0.1,0.2c0.5,0.7,1,1.5,1.5,2.2
			c0.1,0.1,0.2,0.3,0.3,0.4c0.4,0.7,0.9,1.4,1.3,2c0.1,0.2,0.2,0.4,0.3,0.6c0.4,0.6,0.8,1.3,1.2,2c0.1,0.2,0.3,0.4,0.4,0.7
			c0.4,0.6,0.7,1.3,1.1,1.9c0.1,0.2,0.3,0.5,0.4,0.7c0.3,0.6,0.7,1.3,1,1.9c0.1,0.3,0.3,0.5,0.4,0.8c0.3,0.6,0.6,1.3,1,1.9
			c0.1,0.3,0.3,0.5,0.4,0.8c0.3,0.6,0.6,1.3,0.9,1.9c0.1,0.3,0.2,0.5,0.4,0.8c0.3,0.7,0.6,1.3,0.9,2c0.1,0.3,0.2,0.5,0.3,0.8
			c0.3,0.7,0.5,1.3,0.8,2c0.1,0.3,0.2,0.5,0.3,0.8c0.3,0.7,0.5,1.4,0.8,2.1c0.1,0.3,0.2,0.5,0.3,0.8c0.3,0.7,0.5,1.5,0.8,2.2
			c0.1,0.2,0.2,0.5,0.2,0.7c0.3,0.8,0.5,1.6,0.8,2.4c0.1,0.2,0.1,0.4,0.2,0.5c0.3,0.9,0.5,1.9,0.8,2.8c0,0.1,0,0.1,0,0.2l0,0
			C656.3,383.1,610,410.4,548.3,426.9z"/>
		<path class="st0" d="M570,508.1c-25.7,6.9-51.7,4.5-74.6-5c-0.2-0.1-0.4-0.1-0.6-0.1c-20.6,3.2-39.9,4.3-57.1,3.4
			c-1.1-0.1-1.6,1.2-0.8,2c37.1,34.1,90.3,49,142.5,35C640.8,527,683.3,475.3,691,415.9c0.1-1.1-1.1-1.7-1.9-0.9
			c-12.4,11.9-28.1,23.7-46.2,34.7c-0.2,0.1-0.3,0.3-0.4,0.4C628,477.6,602.5,499.3,570,508.1z"/>
	</g>
</g>
</svg>
